<?xml version="1.0" encoding="UTF-8" standalone="no"?>
<!-- Created with Inkscape (http://www.inkscape.org/) -->

<svg
   width="112.81446mm"
   height="111.31775mm"
   viewBox="0 0 112.81446 111.31775"
   version="1.1"
   id="svg1"
   xml:space="preserve"
   inkscape:version="1.4.2 (ebf0e940d0, 2025-05-08)"
   sodipodi:docname="logo-diagram-only.svg"
   inkscape:export-filename="logo-alpha-DRAFT.png"
   inkscape:export-xdpi="96"
   inkscape:export-ydpi="96"
   xmlns:inkscape="http://www.inkscape.org/namespaces/inkscape"
   xmlns:sodipodi="http://sodipodi.sourceforge.net/DTD/sodipodi-0.dtd"
   xmlns="http://www.w3.org/2000/svg"
   xmlns:svg="http://www.w3.org/2000/svg"><sodipodi:namedview
     id="namedview1"
     pagecolor="#505050"
     bordercolor="#ffffff"
     borderopacity="1"
     inkscape:showpageshadow="0"
     inkscape:pageopacity="0"
     inkscape:pagecheckerboard="1"
     inkscape:deskcolor="#505050"
     inkscape:document-units="mm"
     inkscape:zoom="1.4142136"
     inkscape:cx="238.29498"
     inkscape:cy="184.55487"
     inkscape:window-width="1854"
     inkscape:window-height="1037"
     inkscape:window-x="1950"
     inkscape:window-y="27"
     inkscape:window-maximized="1"
     inkscape:current-layer="layer1" /><defs
     id="defs1"><clipPath
       clipPathUnits="userSpaceOnUse"
       id="clipPath82"><rect
         style="fill:#000000;stroke-width:0.264583"
         id="rect83"
         width="112.81446"
         height="111.50484"
         x="4.5313935"
         y="45.882675" /></clipPath></defs><g
     inkscape:label="Layer 1"
     inkscape:groupmode="layer"
     id="layer1"
     transform="translate(-3.9701275,-61.785212)"><g
       id="g1"
       clip-path="url(#clipPath82)"
       transform="translate(-0.56126601,15.715448)"><path
         style="fill:#000000"
         d="m 78.215596,189.81616 c -0.28503,-0.28937 -0.24556,-4.8154 0.0435,-4.99408 0.13309,-0.0823 0.28733,-0.0135 0.34275,0.15272 0.0733,0.22001 0.24864,0.20993 0.64412,-0.0371 0.83851,-0.52366 1.89371,-0.12525 2.38238,0.8995 0.36417,0.76367 0.372,0.98528 0.0579,1.64054 -0.44912,0.93705 -1.62388,1.41474 -2.35554,0.95781 -0.71963,-0.44942 -0.74288,-0.43184 -0.83464,0.63092 -0.0452,0.52311 -0.17141,0.86045 -0.28056,0.74965 z m 2.65907,-2.01826 c 0.17462,-0.17462 0.3175,-0.71296 0.3175,-1.1963 0,-0.67449 -0.14986,-0.94707 -0.64459,-1.17249 -0.81919,-0.37324 -1.39608,-0.15124 -1.77648,0.68365 -0.58828,1.29112 1.12506,2.66365 2.10357,1.68514 z m -53.128327,1.64042 c -0.42623,-0.27546 -0.39632,-0.28454 1.16029,-0.3522 0.64219,-0.0279 1.13517,-0.21369 1.31356,-0.49501 0.34766,-0.54826 0.0217,-0.96046 -0.41451,-0.52422 -0.46245,0.46246 -1.10614,0.38238 -1.89137,-0.23528 -0.85293,-0.67092 -0.92931,-1.86528 -0.16797,-2.62663 0.58783,-0.58783 1.83848,-0.70152 2.32833,-0.21166 0.24695,0.24694 0.3175,0.24694 0.3175,0 0,-0.17463 0.11907,-0.3175 0.26459,-0.3175 0.15414,0 0.26458,0.87564 0.26458,2.09777 0,1.55428 -0.10772,2.20548 -0.41577,2.51354 -0.46015,0.46014 -2.13882,0.55213 -2.75923,0.15119 z m 2.22921,-2.09485 c 0.93004,-1.02767 0.0958,-2.38097 -1.25819,-2.04113 -0.91779,0.23036 -1.21756,1.30835 -0.5645,2.02997 0.5938,0.65613 1.23544,0.66006 1.82269,0.0112 z m -33.2618197,1.13654 c -0.10352,-0.10352 -0.18822,-1.29947 -0.18822,-2.65766 v -2.46945 h 1.46723 c 1.21486005,0 1.58177005,0.11453 2.13310005,0.66586 0.75644,0.75644 0.6756,1.55994 -0.22895,2.27588 -0.54038,0.42771 -0.54015,0.42933 0.19187,1.38907 0.53362,0.6996 0.62571,0.96086 0.33872,0.96086 -0.2168,0 -0.67742,-0.41975 -1.02359,-0.93278 -0.63292005,-0.93796 -1.53475005,-1.39144 -2.08763005,-1.04974 -0.16371,0.10118 -0.2338,0.35038 -0.15575,0.55378 0.17861,0.46543 -0.19328,1.51768 -0.44678,1.26418 z m 2.93386005,-2.79878 c 0.87149,-0.87148 -0.0749,-1.89765 -1.61295005,-1.74887 -0.77109,0.0746 -0.85509,0.17164 -0.92979,1.07419 l -0.0821,0.99218 h 1.15368 c 0.63452,0 1.29655005,-0.14287 1.47118005,-0.3175 z m 2.45336995,2.2662 c -0.72743,-0.92479 -0.6926,-1.82851 0.10106,-2.62218 0.85278,-0.85278 1.81242,-0.83451 2.50637,0.0477 0.90137,1.14591 0.72959,1.41952 -0.89122,1.41952 -1.59674,0 -1.96329,0.26349 -1.29552,0.93126 0.33502,0.33502 0.71098,0.40565 1.52379,0.28625 0.99733,-0.14651 1.04014,-0.12849 0.56544,0.23803 -0.80691,0.62302 -1.88496,0.49391 -2.50992,-0.30059 z m 2.36205,-1.76349 c 0,-0.92062 -1.2499,-1.27876 -1.96548,-0.56318 -0.67926,0.67926 -0.48461,0.90714 0.77485,0.90714 0.80054,0 1.19063,-0.11269 1.19063,-0.34396 z m 1.91823,2.2854 c -0.66066,-0.26658 -0.30769,-0.54588 0.65263,-0.51641 1.29863,0.0399 1.57237,-0.75738 0.35208,-1.0254 -1.3564,-0.29792 -1.69619,-1.753 -0.49815,-2.13324 0.63063,-0.20015 1.80854,0.0598 1.80854,0.3991 0,0.1336 -0.41672,0.17528 -0.92604,0.0926 -0.79036,-0.12826 -0.92604,-0.0755 -0.92604,0.36036 0,0.34341 0.30326,0.6203 0.92604,0.84549 0.97828,0.35376 1.25512,1.18862 0.60854,1.8352 -0.31782,0.31782 -1.3758,0.39317 -1.9976,0.14227 z m 3.9555197,-0.14227 c -0.17463,-0.17463 -0.3175,-0.94853 -0.3175,-1.71979 0,-0.91429 -0.1104897,-1.4023 -0.3174997,-1.4023 -0.24695,0 -0.24695,-0.0705 0,-0.3175 0.17462,-0.17462 0.3174997,-0.54173 0.3174997,-0.81579 0,-0.28393 0.14228,-0.44855 0.33073,-0.38266 0.1819,0.0636 0.29574,0.31165 0.25298,0.55122 -0.0554,0.31059 0.11537,0.43557 0.59531,0.43557 0.37019,0 0.67306,0.11906 0.67306,0.26458 0,0.14552 -0.29765,0.26458 -0.66146,0.26458 -0.59301,0 -0.66146,0.10728 -0.66146,1.0367 0,1.38649 0.21783,1.87372 0.83768,1.87372 0.28406,0 0.44289,0.11906 0.35295,0.26458 -0.22417,0.36272 -1.01656,0.33282 -1.40229,-0.0529 z m 3.02547,-0.23087 c -0.91128,-0.71681 -0.95046,-2.03183 -0.0848,-2.8451 1.18072,-1.10922 2.93235,-0.46674 3.25286,1.19312 0.1312,0.67946 0.0314,0.97366 -0.51634,1.52135 -0.82162,0.82162 -1.7172,0.86574 -2.65174,0.13063 z m 2.21328,-0.50997 c 0.63683,-0.63683 0.66163,-1.01604 0.11729,-1.79321 -0.48773,-0.69632 -1.34092,-0.75991 -2.01469,-0.15015 -0.60172,0.54455 -0.62043,1.3539 -0.046,1.98868 0.57055,0.63044 1.28425,0.6138 1.94337,-0.0453 z m 2.11666,-0.92604 c 0,-1.0914 0.10915,-1.98437 0.24254,-1.98437 0.13339,0 0.28763,0.13528 0.34274,0.30063 0.0716,0.21489 0.26314,0.19888 0.67148,-0.0561 0.94138,-0.5879 1.04284,-0.004 0.12424,0.7147 -0.73074,0.57188 -0.85183,0.83317 -0.85183,1.8381 0,0.6443 -0.11906,1.17145 -0.26458,1.17145 -0.15287,0 -0.26459,-0.83785 -0.26459,-1.98438 z m 3.03709,1.66827 c -0.24146,-0.62925 -0.026,-3.38661 0.27021,-3.45725 0.3556,-0.0848 0.49903,3.24786 0.15461,3.59229 -0.18302,0.18302 -0.3194,0.13966 -0.42482,-0.13504 z m 1.99,-1.66827 c 0,-1.14653 0.11171,-1.98437 0.26458,-1.98437 0.14552,0 0.26458,0.12325 0.26458,0.27389 0,0.1888 0.159,0.1888 0.51178,0 1.45197,-0.77707 2.39864,0.13008 2.39864,2.29852 0,0.76799 -0.11906,1.39634 -0.26458,1.39634 -0.14552,0 -0.26459,-0.54361 -0.26459,-1.20802 0,-1.44802 -0.36823,-2.23157 -1.04874,-2.23157 -0.87337,0 -1.33251,0.73585 -1.33251,2.13557 0,0.71721 -0.11906,1.30402 -0.26458,1.30402 -0.15287,0 -0.26458,-0.83785 -0.26458,-1.98438 z m 12.17083,-0.64584 v -2.66145 h 1.71979 c 0.97014,0 1.71979,0.11533 1.71979,0.26458 0,0.14552 -0.65484,0.26459 -1.4552,0.26459 h -1.45521 v 0.92604 0.92604 h 1.32291 c 0.72761,0 1.32292,0.11906 1.32292,0.26458 0,0.14552 -0.59531,0.26459 -1.32292,0.26459 h -1.32291 v 1.04272 c 0,0.57349 -0.11907,1.1163 -0.26459,1.20624 -0.16969,0.10487 -0.26458,-0.79101 -0.26458,-2.49793 z m 4.88546,1.99165 c -0.2746,-0.41909 -0.39037,-1.0784 -0.33683,-1.91823 0.0928,-1.45596 0.59209,-1.52492 0.64463,-0.089 0.0626,1.71115 0.0966,1.81586 0.64653,1.9904 0.92094,0.29229 1.56854,-0.54641 1.56854,-2.0314 0,-0.70505 0.11907,-1.28191 0.26459,-1.28191 0.15287,0 0.26458,0.83784 0.26458,1.98437 0,1.14653 -0.11171,1.98438 -0.26458,1.98438 -0.14552,0 -0.26459,-0.12325 -0.26459,-0.2739 0,-0.1888 -0.15899,-0.1888 -0.51177,0 -0.83596,0.4474 -1.56572,0.31507 -2.0111,-0.36467 z m 4.57327,0.4841 c -0.28391,-0.28391 -0.24575,-3.48915 0.0437,-3.66802 0.13309,-0.0823 0.2968,1e-5 0.3638,0.18282 0.0975,0.26594 0.19189,0.26627 0.47239,0.002 0.50718,-0.47848 1.41751,-0.40601 1.92352,0.15312 0.2991,0.33051 0.43788,0.95942 0.43788,1.98438 0,1.94802 -0.4787,1.95341 -0.58211,0.007 -0.0571,-1.07493 -0.20922,-1.57548 -0.54237,-1.78458 -0.79092,-0.49643 -1.3603,0.12546 -1.65377,1.80627 -0.14559,0.83386 -0.35395,1.42688 -0.46302,1.31781 z m 4.94903,-0.49496 c -0.88376,-0.88377 -0.86361,-2.0541 0.0477,-2.77095 1.00744,-0.79245 2.47786,-0.67714 2.47786,0.19431 0,0.32782 -0.0706,0.35093 -0.3175,0.10398 -0.50516,-0.50517 -1.46836,-0.36919 -1.91645,0.27054 -0.91765,1.31013 -0.0443,2.49857 1.62806,2.21554 0.93375,-0.15802 0.96742,-0.14197 0.48918,0.23315 -0.74933,0.58776 -1.66862,0.49366 -2.40885,-0.24657 z m 4.4438,0.4742 c -0.21228,-0.0857 -0.33073,-0.69411 -0.33073,-1.6989 0,-1.31132 -0.0752,-1.56682 -0.46302,-1.57387 -0.44097,-0.008 -0.44097,-0.0251 0,-0.3599 0.25466,-0.19331 0.46302,-0.54671 0.46302,-0.78533 0,-0.23862 0.11906,-0.43386 0.26458,-0.43386 0.14552,0 0.26458,0.23813 0.26458,0.52917 0,0.35278 0.17639,0.52917 0.52917,0.52917 0.29104,0 0.52917,0.11906 0.52917,0.26458 0,0.14552 -0.23813,0.26458 -0.52917,0.26458 -0.45991,0 -0.52917,0.17639 -0.52917,1.34769 0,1.12517 0.0874,1.37054 0.52917,1.48607 0.29104,0.0761 0.52917,0.24355 0.52917,0.3721 0,0.2482 -0.70529,0.28103 -1.25677,0.0585 z m 2.57968,-1.80915 c 0,-1.14653 0.11172,-1.98437 0.26459,-1.98437 0.15287,0 0.26458,0.83784 0.26458,1.98437 0,1.14653 -0.11171,1.98438 -0.26458,1.98438 -0.15287,0 -0.26459,-0.83785 -0.26459,-1.98438 z m 2.41136,1.52136 c -0.30672,-0.25467 -0.63087,-0.84209 -0.72033,-1.30538 -0.20925,-1.08364 0.7966,-2.20035 1.98191,-2.20035 1.68397,0 2.50923,2.37966 1.18617,3.42038 -0.85196,0.67016 -1.70745,0.69999 -2.44775,0.0854 z m 2.13187,-0.50403 c 0.59226,-0.53598 0.6142,-1.11038 0.072,-1.8845 -0.79971,-1.14174 -2.3001,-0.54585 -2.3001,0.9135 0,1.22911 1.31141,1.80061 2.22812,0.971 z m 2.07136,-0.84094 c 0,-1.92088 0.14573,-2.32419 0.6797,-1.88104 0.22969,0.19063 0.38419,0.18992 0.50298,-0.002 0.30143,-0.48772 1.41745,-0.29984 1.84502,0.31061 0.45901,0.65532 0.57775,3.38071 0.1473,3.38071 -0.14552,0 -0.26459,-0.63103 -0.26459,-1.40229 0,-1.45854 -0.31142,-2.0373 -1.09624,-2.0373 -0.70227,0 -1.28501,1.04657 -1.28501,2.30783 0,0.62247 -0.11906,1.13176 -0.26458,1.13176 -0.15057,0 -0.26458,-0.77905 -0.26458,-1.80799 z m 4.6743,1.6316 c -0.30444,-0.30444 -0.19268,-0.61736 0.22049,-0.61736 0.21828,0 0.39687,0.17859 0.39687,0.39687 0,0.41317 -0.31292,0.52493 -0.61736,0.22049 z m 5.47432,-0.0736 c -1.57206,-0.66856 -1.9223,-2.98991 -0.64398,-4.26823 1.32264,-1.32264 3.21752,-0.9338 4.13969,0.84947 1.049297,2.02912 -1.31842,4.34472 -3.49571,3.41876 z m 2.43111,-0.92856 c 1.318807,-1.31881 0.44494,-3.5839 -1.38265,-3.5839 -0.91065,0 -1.93667,1.12138 -1.93667,2.11666 0,1.01586 1.03201,2.11667 1.98438,2.11667 0.37703,0 0.97775,-0.29224 1.33494,-0.64943 z m 7.956957,0.96496 c -0.0726,-0.1175 -0.21626,-0.86164 -0.3192,-1.65365 -0.10293,-0.792 -0.31844,-1.53837 -0.47889,-1.65858 -0.20807,-0.1559 -0.19688,-0.25707 0.039,-0.35278 0.1819,-0.0738 0.33073,-0.3624 0.33073,-0.64132 0,-0.27891 0.17859,-0.50712 0.39687,-0.50712 0.22049,0 0.39688,0.23519 0.39688,0.52917 0,0.35278 0.17639,0.52917 0.52917,0.52917 0.29104,0 0.52916,0.11906 0.52916,0.26458 0,0.14552 -0.23812,0.26458 -0.52916,0.26458 -0.46503,0 -0.52917,0.17639 -0.52917,1.45521 0,1.27882 0.0641,1.45521 0.52917,1.45521 0.29104,0 0.52916,0.11906 0.52916,0.26458 0,0.31465 -1.23346,0.35879 -1.42372,0.051 z m 2.74664,-1.77074 c 0,-1.14653 0.11171,-1.98437 0.26458,-1.98437 0.15287,0 0.26459,0.83784 0.26459,1.98437 0,1.14653 -0.11172,1.98438 -0.26459,1.98438 -0.15287,0 -0.26458,-0.83785 -0.26458,-1.98438 z m 1.85208,0.16996 c 0,-1.70391 0.30902,-2.63499 0.60579,-1.82525 0.0975,0.26594 0.19189,0.26627 0.47239,0.002 0.47583,-0.4489 1.29913,-0.41631 1.83962,0.0728 0.39964,0.36168 0.48066,0.36168 0.78083,0 0.45486,-0.54808 1.41607,-0.50847 1.94891,0.0803 0.2991,0.33051 0.43788,0.95942 0.43788,1.98438 0,1.94802 -0.47871,1.95341 -0.58211,0.007 -0.0889,-1.67371 -0.61887,-2.3178 -1.46841,-1.78458 -0.33315,0.2091 -0.48528,0.70965 -0.54237,1.78458 -0.0945,1.77992 -0.58211,2.01943 -0.58211,0.28595 0,-1.4391 -0.36763,-2.23157 -1.03525,-2.23157 -0.73172,0 -1.03859,0.5348 -1.13064,1.97041 -0.0472,0.73675 -0.22572,1.34248 -0.4138,1.4044 -0.24353,0.0802 -0.33073,-0.38115 -0.33073,-1.74964 z m 7.58472,1.63803 c -0.28105,-0.28105 -0.20397,-3.4795 0.0882,-3.66007 0.16748,-0.10351 0.26458,0.57052 0.26458,1.83647 0,2.00801 -0.0273,2.14909 -0.35278,1.8236 z m 1.6757,-0.0639 c 0,-0.13218 0.54232,-0.90609 1.20516,-1.71979 l 1.20516,-1.47947 h -1.20516 c -0.66284,0 -1.20516,-0.11906 -1.20516,-0.26458 0,-0.14699 0.70555,-0.26458 1.5875,-0.26458 0.87312,0 1.587504,0.10724 1.587504,0.23832 0,0.13108 -0.529804,0.87522 -1.177344,1.65365 l -1.17734,1.41532 1.30963,0.08 c 1.923984,0.11749 1.596694,0.58149 -0.41016,0.58149 -0.94588,0 -1.71979,-0.10815 -1.71979,-0.24033 z m 4.373814,-0.18616 c -0.87918,-0.87918 -0.03,-1.95476 1.54331,-1.95476 0.91411,0 0.96049,-0.0377 0.68343,-0.55539 -0.23434,-0.43786 -0.48922,-0.53298 -1.20445,-0.44948 -0.55787,0.0651 -0.87216,-0.001 -0.81618,-0.17221 0.16022,-0.48947 1.78017,-0.4833 2.32399,0.009 0.38171,0.34543 0.5044,0.81664 0.50432,1.93684 l -9e-5,1.48035 -1.31464,0.0554 c -0.88819,0.0374 -1.44603,-0.076 -1.71969,-0.34963 z m 2.18786,-0.42018 c 0.58324,-0.58324 0.35447,-1.00559 -0.5424,-1.00136 -1.22157,0.006 -1.72267,0.36061 -1.27351,0.90182 0.41006,0.49409 1.3688,0.54665 1.81591,0.0995 z m 2.23572,0.67144 c -0.70591,-0.28484 -0.27896,-0.58405 0.7653,-0.53632 1.50182,0.0686 1.64918,-0.51097 0.26786,-1.05357 -0.5879,-0.23093 -1.13154,-0.5831 -1.20809,-0.78259 -0.35239,-0.91832 0.62965,-1.61331 1.84768,-1.3076 0.92197,0.2314 0.79242,0.63308 -0.18934,0.58703 -1.1431,-0.0536 -1.23705,0.49767 -0.17736,1.04072 1.32839,0.68075 1.54064,1.12901 0.85787,1.81178 -0.39984,0.39984 -1.47339,0.51918 -2.16392,0.24055 z m 6.01928,-2.47061 c 0,-3.27563 0.47882,-3.54633 0.58501,-0.33073 l 0.0764,2.31511 1.38907,0.08 c 1.98607,0.11435 1.72038,0.58149 -0.33073,0.58149 h -1.71979 z m 4.49791,0.66146 c 0,-1.14653 0.11171,-1.98437 0.26458,-1.98437 0.15288,0 0.26459,0.83784 0.26459,1.98437 0,1.14653 -0.11171,1.98438 -0.26459,1.98438 -0.15287,0 -0.26458,-0.83785 -0.26458,-1.98438 z m 2.11667,0.28663 c 0,-1.09949 -0.11654,-1.75213 -0.33073,-1.85208 -0.26458,-0.12347 -0.26458,-0.18521 0,-0.30868 0.1819,-0.0849 0.33073,-0.35873 0.33073,-0.60854 0,-0.24981 0.14287,-0.59708 0.3175,-0.7717 0.38389,-0.38389 1.53458,-0.42357 1.53458,-0.0529 0,0.14552 -0.22539,0.26458 -0.50086,0.26458 -0.27547,0 -0.57313,0.18834 -0.66146,0.41852 -0.23691,0.61739 -0.21935,0.63982 0.50086,0.63982 0.36381,0 0.66146,0.11906 0.66146,0.26458 0,0.14552 -0.29765,0.26458 -0.66146,0.26458 -0.63771,0 -0.66146,0.0617 -0.66146,1.7198 0,0.97013 -0.11533,1.71979 -0.26458,1.71979 -0.1489,0 -0.26458,-0.74231 -0.26458,-1.69775 z m 2.88681,1.20267 c -0.4425,-0.35832 -0.6114,-0.76973 -0.6114,-1.4893 0,-1.81934 1.92735,-2.64714 2.99705,-1.28723 0.85184,1.08293 0.70079,1.33951 -0.90684,1.54037 -1.51087,0.18877 -1.72895,0.38092 -1.06123,0.93508 0.25683,0.21315 0.73481,0.26303 1.37307,0.14329 0.87264,-0.16371 0.94136,-0.1382 0.63196,0.23459 -0.46975,0.56602 -1.67598,0.52778 -2.42261,-0.0768 z m 2.25938,-1.86484 c 0.20646,-0.33406 -0.58318,-1.07967 -1.14342,-1.07967 -0.54067,0 -1.09236,0.49442 -1.09236,0.97896 0,0.39952 1.99555,0.4894 2.23578,0.10071 z M 20.602589,183.61748 c 0,-0.14552 0.18562,-0.26458 0.41249,-0.26458 0.22687,0 0.33891,0.11906 0.24897,0.26458 -0.0899,0.14552 -0.27556,0.26459 -0.41249,0.26459 -0.13693,0 -0.24897,-0.11907 -0.24897,-0.26459 z m 35.71874,-0.13229 c 0,-0.21828 0.11907,-0.39687 0.26459,-0.39687 0.14552,0 0.26458,0.17859 0.26458,0.39687 0,0.21828 -0.11906,0.39688 -0.26458,0.39688 -0.14552,0 -0.26459,-0.1786 -0.26459,-0.39688 z m 29.684047,0.11245 c 0.0521,-0.15643 0.20792,-0.28443 0.34616,-0.28443 0.13825,0 0.29402,0.128 0.34616,0.28443 0.0522,0.15644 -0.10362,0.28443 -0.34616,0.28443 -0.24253,0 -0.39831,-0.12799 -0.34616,-0.28443 z m 9.525,0 c 0.0521,-0.15643 0.20792,-0.28443 0.34616,-0.28443 0.13825,0 0.29402,0.128 0.34616,0.28443 0.0521,0.15644 -0.10362,0.28443 -0.34616,0.28443 -0.24253,0 -0.39831,-0.12799 -0.34616,-0.28443 z m 21.115954,-0.11245 c 0,-0.21828 0.11906,-0.39687 0.26458,-0.39687 0.14553,0 0.26459,0.17859 0.26459,0.39687 0,0.21828 -0.11906,0.39688 -0.26459,0.39688 -0.14552,0 -0.26458,-0.1786 -0.26458,-0.39688 z m -67.459071,-4.67627 c -3.36424,-0.96525 -4.6408,-5.31435 -2.30715,-7.86019 2.27994,-2.48725 6.72124,-1.9076 8.27574,1.08009 0.90407,1.73761 0.1641,4.87448 -1.40821,5.96966 -1.51373,1.05438 -2.87006,1.29542 -4.56038,0.81044 z m 2.47779,-1.91036 c 1.1951,-0.49935 1.74587,-1.36976 1.74587,-2.75911 0,-0.96441 -0.15053,-1.30875 -0.89959,-2.0578 -0.69887,-0.69888 -1.11798,-0.89958 -1.87853,-0.89958 -1.37825,0 -2.77813,1.39316 -2.77813,2.7648 0,1.3279 0.66537,2.49607 1.67077,2.93336 1.062,0.46189 1.0777,0.46202 2.13961,0.0183 z m 44.343777,1.91014 c -2.11528,-0.60109 -3.43958,-2.34927 -3.43958,-4.54054 0,-2.17079 0.8672,-3.55615 2.77812,-4.4381 2.42232,-1.11797 5.432724,-0.12107 6.639734,2.19876 0.90407,1.73761 0.1641,4.87448 -1.40822,5.96966 -1.514974,1.05525 -2.865304,1.29464 -4.570054,0.81022 z m 2.48746,-1.91014 c 1.19511,-0.49935 1.745884,-1.36976 1.745884,-2.75911 0,-0.96441 -0.15053,-1.30875 -0.899594,-2.0578 -0.69888,-0.69888 -1.11799,-0.89958 -1.87854,-0.89958 -0.76055,0 -1.17966,0.2007 -1.87854,0.89958 -0.74905,0.74905 -0.89958,1.09339 -0.89958,2.0578 0,1.36493 0.54351,2.24992 1.68759,2.74785 1.04336,0.45409 1.06268,0.4542 2.12278,0.0113 z m -121.608826,-1.80216 -0.0734,-3.75859 -1.38906,0.074 -1.38906,0.074 v -0.94565 -0.94566 h 3.83646 3.83645 v 0.92604 0.92604 h -1.32291 -1.32292 v 3.70417 3.70416 h -1.05107 -1.05107 z m 6.93805,-0.87162 v -4.63021 h 1.05833 1.05834 v 1.85208 1.85208 h 1.852079 1.85208 l 0.004,-1.25677 c 0.006,-2.07216 0.19268,-2.44739 1.2178703,-2.44739 h 0.89519 v 4.63021 4.6302 h -1.05834 -1.0583303 v -1.85208 -1.85208 h -1.85208 -1.852089 v 1.85208 1.85208 h -1.05833 -1.05833 z m 10.8479193,0 v -4.63021 h 3.43958 3.43958 v 0.92604 0.92604 H -0.97771065 -3.5080207 l 0.0829,0.8599 0.0829,0.85989 2.18281,0.0769 2.18282,0.0768 v 0.91534 0.91534 h -2.11667 -2.11667 v 1.02501 1.02502 l 2.51354005,-0.099 2.51354995,-0.099 v 0.92606 0.92605 h -3.57188 -3.57187 z m 13.75833,0 v -4.63021 l 2.8442697,9.9e-4 c 2.37588,8.2e-4 2.98696,0.088 3.71076,0.52929 1.67415,1.02072 1.83476,3.48854 0.31541,4.8462 l -0.83516,0.74627 0.95111,1.43247 c 0.52311,0.78786 0.95111,1.49383 0.95111,1.56883 0,0.075 -0.50602,0.13575 -1.12448,0.135 -1.07341,-0.001 -1.16654,-0.0673 -2.05052,-1.45384 -0.81059,-1.2714 -1.03325,-1.45265 -1.78594,-1.45385 l -0.8599,-0.001 v 1.45521 1.4552 h -1.0583297 -1.05833 z m 5.4050597,-0.54807 c 0.49346,-0.49346 0.5435,-1.46733 0.0983,-1.91256 -0.17463,-0.17462 -1.00807,-0.3175 -1.85209,-0.3175 h -1.53458 v 1.32292 1.32291 h 1.43631 c 0.95296,0 1.57623,-0.13991 1.85209,-0.41577 z m 4.91369,0.54807 v -4.63021 h 3.57187 3.57188 v 0.9442 0.94419 l -2.51414,-0.0843 -2.51413,-0.0843 5.9e-4,0.99219 5.9e-4,0.99218 h 2.24896 2.24896 v 0.92605 0.92604 h -2.24896 -2.24896 v 1.08989 1.08989 l 2.51355,-0.10993 2.51354,-0.10993 v 0.87212 0.87212 h -3.57188 -3.57187 z m 10.60155,4.21559 c -1.50697,-0.65386 -1.62396,-0.83274 -1.12177,-1.71526 0.24315,-0.4273 0.50162,-0.74188 0.57438,-0.69907 0.0728,0.0428 0.71977,0.35491 1.4378,0.69357 1.57675,0.74368 2.66325,0.54203 2.66325,-0.4943 0,-0.53544 -0.24374,-0.71727 -1.5875,-1.18426 -2.25546,-0.78382 -2.69692,-1.09143 -3.03455,-2.11447 -0.8255,-2.50127 1.80464,-4.24612 5.01892,-3.32959 1.572,0.44825 1.72137,0.62313 1.33304,1.56064 -0.39118,0.94439 -0.4427,0.9578 -1.55241,0.40421 -0.45641,-0.22769 -1.21885,-0.37652 -1.6943,-0.33073 -0.72272,0.0696 -0.86445,0.19137 -0.86445,0.74267 0,0.57339 0.22438,0.73807 1.71979,1.2622 2.04663,0.71733 2.91041,1.57002 2.91041,2.87303 0,1.20556 -0.36358,1.85301 -1.31762,2.34636 -0.97865,0.50608 -3.30196,0.49831 -4.48499,-0.015 z m 10.15407,0.12711 c -0.0977,-0.15812 -0.14375,-1.37851 -0.10228,-2.71198 0.0415,-1.33346 0.0549,-2.93049 0.0298,-3.54895 l -0.0456,-1.12448 h -1.32291 c -1.29352,0 -1.32292,-0.0176 -1.32292,-0.79375 v -0.79375 l 2.84427,-0.003 c 1.56435,-0.002 3.29076,-0.0767 3.83646,-0.16691 l 0.99219,-0.164 4.7e-4,1.0268 4.6e-4,1.02681 h -1.38952 -1.38954 l -0.0734,3.77031 -0.0734,3.77031 h -0.90316 c -0.49674,0 -0.98312,-0.12937 -1.08085,-0.2875 z m 18.4027,-4.3427 v -4.63021 h 3.02241 c 2.85687,0 3.06651,0.0371 3.82746,0.67741 1.40626,1.18328 1.41775,3.47893 0.024,4.79441 l -0.75844,0.71585 0.86896,1.20565 c 1.38337,1.91934 1.38113,1.86709 0.0802,1.86709 -1.1232,0 -1.20646,-0.0567 -2.13499,-1.4552 -0.86402,-1.30132 -1.06385,-1.45521 -1.88954,-1.45521 h -0.92334 v 1.45521 1.4552 h -1.05833 -1.05834 z m 5.30907,-0.40619 c 0.61793,-0.33071 0.691,-1.62923 0.11841,-2.10444 -0.21635,-0.17955 -1.02002,-0.34296 -1.78594,-0.36312 l -1.39258,-0.0367 -0.08,1.38906 -0.08,1.38906 h 1.35413 c 0.74478,0 1.58444,-0.12325 1.86592,-0.27389 z m 4.48488,4.83796 c 0.002,-0.10914 0.87546,-2.2225 1.94011,-4.69636 l 1.93574,-4.49791 h 0.98743 0.98743 l 1.96632,4.6302 c 1.08147,2.54662 1.966737,4.65998 1.967247,4.69636 5.2e-4,0.0364 -0.4815,0.0661 -1.071157,0.0661 -0.955,0 -1.10253,-0.0873 -1.35074,-0.79933 -0.36894,-1.05832 -0.92851,-1.31733 -2.84605,-1.31733 h -1.59952 l -0.53992,1.05833 c -0.4737,0.92852 -0.65286,1.05833 -1.46059,1.05833 -0.50636,0 -0.9187,-0.0893 -0.9163,-0.19843 z m 6.06482,-3.70417 c -0.009,-0.10914 -0.29149,-0.79375 -0.62791,-1.52135 l -0.61167,-1.32292 -0.56272,1.27871 c -0.30949,0.70328 -0.56272,1.38789 -0.56272,1.52135 0,0.13346 0.53579,0.24265 1.19063,0.24265 0.65484,0 1.18332,-0.0893 1.17439,-0.19844 z m 7.395847,3.70417 c -0.0158,-0.10914 -0.0456,-1.80578 -0.0662,-3.77032 l -0.0374,-3.57187 -1.38907,-0.08 c -1.34345,-0.0773 -1.38906,-0.10558 -1.38906,-0.8599 v -0.77992 h 3.83646 3.83646 v 0.92604 0.92604 h -1.45521 -1.45521 v 3.70417 3.70416 h -0.92604 c -0.50932,0 -0.93897,-0.0893 -0.95476,-0.19843 z m 6.90788,-4.43177 v -4.63021 h 1.05834 1.05833 v 4.63021 4.6302 h -1.05833 -1.05834 z m 16.668754,0.0308 v -4.59936 l 0.71084,-0.13589 c 0.39096,-0.0747 0.86446,-0.0769 1.05222,-0.005 0.18777,0.072 1.26688,1.37586 2.39802,2.89734 l 2.05663,2.76634 0.0751,-2.7923 0.0751,-2.7923 h 1.04939 1.04938 v 4.64618 4.64618 l -0.99219,-0.0821 c -0.92235,-0.0763 -1.14117,-0.28087 -3.10885,-2.90592 l -2.11667,-2.82381 -0.0748,2.88995 -0.0748,2.88995 h -1.04967 -1.04967 z m 15.61042,-0.0308 v -4.63021 h 1.05833 1.05833 v 3.70416 3.70417 h 2.24896 2.24896 v 0.92604 0.92604 h -3.30729 -3.30729 z m 8.63287,2.44739 c 0.51693,-1.20054 1.42185,-3.34367 2.01092,-4.7625 l 1.07103,-2.57969 h 0.97436 0.97435 l 1.83334,4.29742 c 1.00833,2.36357 1.9188,4.5067 2.02325,4.7625 0.16386,0.40129 0.033,0.46508 -0.95392,0.46508 -1.06364,0 -1.16106,-0.0603 -1.38971,-0.85989 l -0.24588,-0.8599 -2.16567,-0.0767 -2.16567,-0.0767 -0.39135,0.93661 c -0.35591,0.85183 -0.48746,0.93661 -1.45314,0.93661 h -1.0618 z m 4.85702,-2.85406 c -0.28892,-0.733 -0.52531,-1.38784 -0.52531,-1.45521 0,-0.0674 -0.10289,-0.1225 -0.22864,-0.1225 -0.23791,0 -1.09428,2.02575 -1.09428,2.58853 0,0.20495 0.43114,0.32189 1.18677,0.32189 h 1.18676 z m 6.08927,0.42824 v -4.65178 h 3.00703 c 2.61247,0 3.09584,0.0698 3.68385,0.53239 1.11891,0.88013 1.16966,2.78699 0.0928,3.48651 -0.17424,0.11319 -0.009,0.43484 0.43649,0.84727 1.0483,0.97154 1.0615,2.545 0.0302,3.60049 -0.61002,0.62433 -0.83168,0.66639 -3.94833,0.74919 l -3.30202,0.0877 z m 5.10607,2.77682 c 0.86378,-0.32841 1.09946,-1.03651 0.54785,-1.64603 -0.33619,-0.37149 -0.82046,-0.49091 -1.99076,-0.49091 h -1.54649 v 1.04157 c 0,0.97683 0.0534,1.04821 0.8599,1.14829 0.47294,0.0587 1.00097,0.12576 1.1734,0.14905 0.17242,0.0233 0.60267,-0.0676 0.9561,-0.20197 z m 0.0344,-4.14021 c 0.22868,-0.22867 0.41577,-0.51958 0.41577,-0.64645 0,-0.49287 -1.2291,-1.05444 -2.30783,-1.05444 h -1.13175 v 1.05833 1.05833 h 1.30402 c 0.83269,0 1.45429,-0.15027 1.71979,-0.41577 z m -89.939431,-15.4854 c -7.82133,-0.94713 -15.63682,-3.51942 -21.89638,-7.2067 -14.13293,-8.3252 -23.7688797,-21.95827 -26.8146897,-37.93778 -0.8453,-4.43479 -1.15277,-12.347679 -0.65146,-16.765689 1.42318,-12.54237 7.1643697,-24.32364 16.1972497,-33.23772 3.31619,-3.27257 5.30434,-4.88852 8.95591,-7.27927 7.00012,-4.5831 15.45651,-7.65935 23.88004,-8.68704 3.43883,-0.41954 12.76456,-0.18635 15.89013,0.39734 9.098957,1.69921 17.270267,5.2592 24.468147,10.66004 2.5459,1.91028 7.318834,6.49252 9.305834,8.93404 6.21146,7.63229 10.064,16.00086 11.98354,26.03086 0.51017,2.66574 0.58712,3.93295 0.58025,9.555599 -0.009,7.02932 -0.21677,8.78855 -1.70895,14.44136 -5.08654,19.26921 -20.416674,34.50171 -39.802191,39.54872 -1.60871,0.41883 -4.05602,0.95323 -5.43847,1.18755 -3.02195,0.51222 -11.91834,0.72569 -14.94896,0.35869 z m 13.42934,-4.87708 c 17.951527,-2.68477 33.081171,-14.36601 39.994491,-30.87881 6.79276,-16.22482 4.88642,-34.272089 -5.18278,-49.065339 -2.07753,-3.05221 -6.681794,-8.00933 -9.700494,-10.44391 -10.27565,-8.28728 -23.489177,-12.4555 -36.070637,-11.37854 -10.38253,0.88874 -19.12436,4.21636 -27.47303,10.45774 -4.4213,3.30532 -9.38295,8.80074 -12.39844,13.73226 -9.0609397,14.81821 -10.0789097,33.213669 -2.69747,48.745479 2.70849,5.69912 5.09885,9.13973 9.53477,13.72402 8.14028,8.41254 18.72046,13.75189 30.16738,15.22415 3.01945,0.38834 10.89261,0.3217 13.82622,-0.11705 z M 22.190089,102.15016 V 69.895331 l 10.3849,0.12098 c 11.73593,0.13673 12.9486,0.28232 16.29266,1.95607 1.12849,0.56483 2.74416,1.65706 3.59038,2.42718 l 1.53858,1.40022 -2.95927,3.70417 c -1.6276,2.03729 -3.04742,3.79562 -3.15515,3.9074 -0.10773,0.11179 -0.67644,-0.25391 -1.26379,-0.81264 -0.58736,-0.55874 -1.65081,-1.30416 -2.36322,-1.65649 -1.2189,-0.60281 -1.61132,-0.64576 -6.65311,-0.72821 l -5.35781,-0.0876 V 107.2657 134.405 h -5.02709 -5.02708 z m 27.30559,28.21993 c -1.15766,-2.21919 -4.07761,-7.84489 -6.48878,-12.50156 -2.41118,-4.65667 -5.68529,-10.90745 -7.2758,-13.89063 l -2.89185,-5.423949 4.66344,-0.16646 c 5.09658,-0.18192 6.10587,-0.41209 8.10614,-1.84857 1.46781,-1.0541 2.43318,-2.43681 3.14546,-4.50529 l 0.55647,-1.61601 4.80993,-1.63883 4.80994,-1.63883 0.17601,1.27976 c 0.38269,2.78244 -0.44174,6.71167 -2.07084,9.86964 -1.35021,2.617359 -4.81206,6.218139 -7.12998,7.416119 -0.8364,0.43228 -1.52101,0.85742 -1.52135,0.94475 -9.3e-4,0.2337 11.48714,22.1548 13.67866,26.10111 l 0.91833,1.65365 h -5.69047 -5.69047 z m 17.40899,-9.65979 c 0,-13.57066 0.005,-13.69779 0.5487,-14.03736 0.80721,-0.50411 1.36984,-2.04782 1.17236,-3.21667 -0.14583,-0.86316 -0.0805,-1.0398 0.53369,-1.4422 1.01408,-0.66446 1.53283,-2.057469 1.20642,-3.239639 -0.14344,-0.51949 -0.45831,-1.16277 -0.6997,-1.42951 -0.41049,-0.45358 -0.40274,-0.53096 0.1196,-1.19501 0.9798,-1.24562 0.55438,-3.90163 -0.7355,-4.59195 -0.40331,-0.21585 -0.47059,-0.47952 -0.36389,-1.42619 0.0913,-0.81006 -4e-5,-1.36124 -0.30198,-1.82205 -0.41401,-0.63186 -0.23938,-0.5945 4.00465,0.85671 l 4.437517,1.51737 0.0681,16.833509 0.0681,16.83351 h 11.63971 11.639714 v 5.02708 5.02709 H 83.573406 66.904659 Z m -3.94775,9.61895 c -0.17088,-0.2059 -0.23415,-0.66728 -0.14191,-1.03482 0.10308,-0.41069 -0.033,-1.11428 -0.35746,-1.84768 l -0.52393,-1.18444 0.69959,-0.32627 c 0.38477,-0.17945 1.2056,-0.36292 1.82406,-0.4077 0.96634,-0.07 1.12448,-0.009 1.12448,0.43453 0,0.28416 -0.27809,0.64267 -0.61899,0.79799 -0.4839,0.22048 -0.62793,0.51019 -0.65995,1.32748 -0.035,0.8941 -0.65623,2.61248 -0.94442,2.61248 -0.0512,0 -0.23186,-0.1672 -0.40147,-0.37157 z m -2.42355,-6.15916 c -0.49761,-0.68148 -0.99256,-1.38263 -1.09988,-1.55811 -0.13143,-0.21488 0.28714,-0.51479 1.28198,-0.91857 1.20871,-0.49057 1.5175,-0.53419 1.69929,-0.24005 0.18603,0.30101 0.32961,0.30196 0.88298,0.006 0.8202,-0.43896 1.49026,-0.21026 1.49026,0.50865 0,0.34352 -0.25556,0.64118 -0.69341,0.80765 -0.59808,0.22739 -0.67133,0.37406 -0.53278,1.06679 0.14513,0.72564 0.0724,0.84002 -0.7533,1.18503 -0.50266,0.21002 -1.01663,0.38186 -1.14216,0.38186 -0.12552,0 -0.63536,-0.55757 -1.13298,-1.23906 z m -2.71221,-4.74552 c -0.54832,-1.10815 -0.96127,-2.04482 -0.91766,-2.0815 0.0436,-0.0367 1.01123,-0.27104 2.15027,-0.52081 1.92785,-0.42275 2.09316,-0.42379 2.392,-0.0151 0.27418,0.37496 0.42709,0.39072 1.04766,0.10797 0.61966,-0.28234 0.79267,-0.26502 1.17538,0.11769 0.5688,0.5688 0.21649,1.212 -0.88289,1.61181 -0.61967,0.22536 -0.77604,0.43983 -0.77604,1.06435 0,0.69659 -0.12702,0.81889 -1.16154,1.11841 -0.63884,0.18496 -1.35699,0.39833 -1.59588,0.47415 -0.3288,0.10436 -0.67657,-0.35169 -1.4313,-1.87697 z m -1.33438,-3.73238 c -0.0764,-0.25822 -0.21979,-1.3327 -0.31865,-2.38772 l -0.17975,-1.91823 h 2.5725 c 2.34716,0 2.58458,0.0462 2.71042,0.52743 0.11768,0.45001 0.2869,0.50361 1.15285,0.36514 0.92787,-0.14837 1.02952,-0.10413 1.18513,0.51586 0.24104,0.9604 -0.0277,1.2374 -1.20057,1.2374 -0.91776,0 -1.03391,0.0751 -1.10886,0.71721 -0.0901,0.772 -0.38167,0.88166 -3.30498,1.24312 -1.17018,0.14468 -1.38937,0.10105 -1.50809,-0.30021 z m 1.23985,-5.34121 c -0.75505,-0.0918 -1.42271,-0.22391 -1.48368,-0.29347 -0.061,-0.0696 0.14454,-1.13851 0.4567,-2.37544 0.64919,-2.57239 0.45121,-2.4815 3.59043,-1.64824 1.61159,0.42777 2.00026,0.63207 2.06893,1.08748 0.067,0.44459 0.27066,0.56076 0.98288,0.56076 1.09885,0 1.63469,0.74076 1.16742,1.61387 -0.29731,0.55552 -0.5224,0.56659 -2.02441,0.0996 -0.47765,-0.14851 -0.61465,-0.0565 -0.75629,0.50781 -0.15718,0.62626 -0.28508,0.68578 -1.40106,0.65193 -0.67545,-0.0205 -1.84586,-0.11241 -2.60092,-0.20426 z m 3.88123,-4.80418 c -2.84824,-0.98917 -3.72407,-1.36077 -3.64597,-1.54694 0.0436,-0.10387 0.49596,-0.991 1.00528,-1.97141 1.05181,-2.02464 0.83874,-1.98363 3.96875,-0.7639 1.33326,0.51955 1.95543,0.89624 1.89618,1.14801 -0.19391,0.82386 -0.15202,0.90536 0.48507,0.94396 0.3638,0.022 0.81028,0.0518 0.99219,0.0661 0.4959,0.0391 0.40617,1.54505 -0.10925,1.8335 -0.29169,0.16323 -0.74147,0.12024 -1.33456,-0.12757 -0.94694,-0.39565 -1.40047,-0.29704 -1.40047,0.30451 0,0.61601 -0.34927,0.6374 -1.85722,0.11369 z m 1.17248,-5.18091 -2.13995,-0.926119 0.52365,-1.77816 0.52365,-1.77815 2.3312,0.52577 c 2.14177,0.48306 2.3376,0.5808 2.41005,1.20296 0.0642,0.55146 0.25077,0.70173 1.00489,0.80947 0.75702,0.10814 0.94056,0.25715 1.00557,0.81639 0.11216,0.964879 -0.55596,1.469509 -1.42273,1.074589 -0.9699,-0.441919 -1.17034,-0.380609 -1.17034,0.35797 0,0.87912 -0.42906,0.83647 -3.06599,-0.30472 z m 0.94933,-4.813839 -1.98438,-0.43769 -0.16831,-1.71979 c -0.0926,-0.94588 -0.13307,-1.75867 -0.09,-1.8062 0.0431,-0.0475 1.04156,-0.002 2.21883,0.10031 2.05745,0.17948 2.1405,0.2124 2.1405,0.84863 0,0.6093 0.074,0.64991 0.93038,0.51094 0.7835,-0.12715 0.99695,-0.0494 1.35201,0.4925 0.64499,0.98438 0.29227,1.54194 -0.85741,1.35538 -0.90006,-0.14606 -0.93885,-0.12156 -0.78403,0.49531 0.19499,0.77686 0.0695,0.78418 -2.75761,0.16061 z m -0.57828,-4.64387 -2.03349,-0.23744 -0.29611,-1.35006 c -0.16285,-0.74254 -0.3382,-1.55932 -0.38965,-1.81507 -0.20504,-1.01918 2.26559,-1.71977 3.1049,-0.88045 0.20589,0.20589 0.52753,0.74416 0.71475,1.19616 0.30528,0.73701 0.42736,0.80551 1.18288,0.66378 0.9469,-0.17764 1.58067,0.32678 1.41533,1.12645 -0.0682,0.32981 -0.31351,0.46112 -0.79981,0.42808 -0.53772,-0.0365 -0.72057,0.087 -0.78338,0.52917 -0.0795,0.55963 -0.14253,0.56974 -2.11542,0.33938 z m -15.13044,-4.14658 c 1.16584,-1.37234 4.77876,-5.76937 8.02871,-9.77119 3.24995,-4.00183 6.05484,-7.43587 6.23308,-7.63121 0.2635,-0.28878 1.18046,0.70042 4.90525,5.29166 2.51964,3.10576 6.01673,7.3607 7.77131,9.45541 1.754587,2.09472 3.393317,4.06825 3.641627,4.38562 0.37634,0.48102 -0.93055,0.11699 -7.853767,-2.18767 l -8.30524,-2.76471 -7.88894,2.71801 c -4.33891,1.49491 -8.06056,2.78129 -8.27034,2.85862 -0.20977,0.0773 0.57247,-0.98221 1.73831,-2.35454 z m 27.50478,-5.35838 c -0.71544,-0.89908 -2.94787,-3.67279 -4.96094,-6.1638 -2.01307,-2.49101 -3.65934,-4.69367 -3.65839,-4.89479 0.003,-0.54053 9.716887,-0.72617 9.922777,-0.18963 0.0767,0.19997 0.10753,3.18043 0.0684,6.62324 l -0.0711,6.25966 z"
         id="path1" /></g></g></svg>
